<svg width="120" height="36" viewBox="0 0 120 36" fill="none" xmlns="http://www.w3.org/2000/svg">
<g filter="url(#filter0_d_9_39)">
<mask id="path-1-outside-1_9_39" maskUnits="userSpaceOnUse" x="4" y="0" width="112" height="28" fill="black">
<rect fill="white" x="4" width="112" height="28"/>
<path d="M20.9617 19.1976C20.9617 20.5815 20.632 21.7844 19.9726 22.8064C19.3133 23.8283 18.3504 24.6161 17.0839 25.1697C15.8279 25.7232 14.2999 26 12.4996 26C11.7042 26 10.9244 25.9468 10.1604 25.8403C9.40681 25.7339 8.6794 25.5795 7.97815 25.3772C7.28737 25.1643 6.62798 24.9035 6 24.5948V19.996C7.08851 20.4857 8.21888 20.9275 9.39111 21.3214C10.5634 21.7152 11.7251 21.9122 12.8764 21.9122C13.6719 21.9122 14.3103 21.8057 14.7918 21.5928C15.2837 21.3799 15.6396 21.0872 15.8593 20.7146C16.0791 20.342 16.189 19.9162 16.189 19.4371C16.189 18.8516 15.9954 18.3513 15.6082 17.9361C15.2209 17.521 14.6871 17.1324 14.0068 16.7705C13.3369 16.4085 12.5781 16.02 11.7304 15.6048C11.1966 15.3493 10.6157 15.0406 9.9877 14.6786C9.35971 14.3061 8.76313 13.8536 8.19794 13.3214C7.63276 12.7891 7.167 12.145 6.80068 11.3892C6.44482 10.6228 6.26689 9.70725 6.26689 8.64271C6.26689 7.24817 6.58089 6.05589 7.20887 5.06587C7.83685 4.07585 8.73173 3.32003 9.8935 2.7984C11.0657 2.26613 12.4473 2 14.0382 2C15.2314 2 16.367 2.14371 17.445 2.43114C18.5335 2.70792 19.6691 3.11244 20.8518 3.64471L19.2819 7.49301C18.2248 7.05655 17.2775 6.72122 16.4402 6.48703C15.6029 6.24218 14.7499 6.11976 13.8812 6.11976C13.2741 6.11976 12.7561 6.22089 12.3269 6.42315C11.8978 6.61477 11.5734 6.89155 11.3536 7.25349C11.1338 7.60479 11.0239 8.01464 11.0239 8.48303C11.0239 9.03659 11.1809 9.50499 11.4949 9.88822C11.8193 10.2608 12.3008 10.6228 12.9392 10.9741C13.5881 11.3253 14.3941 11.7352 15.357 12.2036C16.5292 12.7678 17.5287 13.3586 18.3556 13.976C19.1929 14.5828 19.8366 15.3014 20.2866 16.1317C20.7367 16.9514 20.9617 17.9734 20.9617 19.1976Z"/>
<path d="M31.1752 22.1198C31.6986 22.1198 32.2062 22.0665 32.6981 21.9601C33.2005 21.8536 33.6977 21.7206 34.1896 21.5609V25.1856C33.6767 25.4198 33.0383 25.6114 32.2742 25.7605C31.5206 25.9202 30.6938 26 29.7937 26C28.747 26 27.8051 25.8297 26.9678 25.489C26.1409 25.1377 25.4868 24.5363 25.0053 23.6846C24.5343 22.8224 24.2988 21.6248 24.2988 20.0918V11.485H22.0067V9.42515L24.6442 7.79641L26.0258 4.02794H29.0872V7.82834H34.0012V11.485H29.0872V20.0918C29.0872 20.7731 29.2756 21.2841 29.6524 21.6248C30.0396 21.9548 30.5473 22.1198 31.1752 22.1198Z"/>
<path d="M46.5853 7.49301C46.8261 7.49301 47.1034 7.50898 47.4174 7.54092C47.7419 7.56221 48.0035 7.59415 48.2024 7.63673L47.8413 12.2036C47.6843 12.1504 47.4593 12.1131 47.1662 12.0918C46.8836 12.0599 46.6377 12.0439 46.4284 12.0439C45.8108 12.0439 45.209 12.1238 44.6229 12.2834C44.0472 12.4431 43.5292 12.7039 43.0686 13.0659C42.6081 13.4172 42.2418 13.8856 41.9697 14.4711C41.708 15.0459 41.5772 15.7538 41.5772 16.5948V25.6806H36.7888V7.82834H40.4154L41.1219 10.8303H41.3574C41.7028 10.2236 42.1319 9.66999 42.6447 9.16966C43.1681 8.65868 43.7594 8.25416 44.4188 7.95609C45.0887 7.64737 45.8108 7.49301 46.5853 7.49301Z"/>
<path d="M57.6624 7.49301C59.2846 7.49301 60.6819 7.81238 61.8541 8.4511C63.0264 9.07917 63.9317 9.99468 64.5702 11.1976C65.2086 12.4005 65.5279 13.8696 65.5279 15.6048V17.9681H54.2084C54.2608 19.3413 54.6637 20.4218 55.4173 21.2096C56.1814 21.9867 57.2385 22.3752 58.5886 22.3752C59.7085 22.3752 60.7342 22.2582 61.6658 22.024C62.5973 21.7898 63.5549 21.4385 64.5388 20.9701V24.7385C63.6701 25.175 62.7595 25.4943 61.807 25.6966C60.8651 25.8989 59.719 26 58.3688 26C56.6105 26 55.051 25.67 53.6904 25.01C52.3402 24.35 51.2779 23.344 50.5033 21.992C49.7393 20.6401 49.3573 18.9368 49.3573 16.8822C49.3573 14.7957 49.7027 13.0605 50.3934 11.6766C51.0947 10.2821 52.0681 9.23886 53.3136 8.54691C54.5591 7.84431 56.0087 7.49301 57.6624 7.49301ZM57.6938 10.9581C56.7622 10.9581 55.9877 11.2615 55.3702 11.8683C54.7632 12.475 54.4125 13.4278 54.3183 14.7265H61.0378C61.0273 14.0027 60.8965 13.3586 60.6453 12.7944C60.4046 12.2302 60.0382 11.7831 59.5463 11.4531C59.0649 11.1231 58.4473 10.9581 57.6938 10.9581Z"/>
<path d="M75.6472 7.46108C78.0021 7.46108 79.8076 7.9827 81.0636 9.02595C82.3195 10.0692 82.9475 11.6554 82.9475 13.7844V25.6806H79.6035L78.6772 23.2535H78.5516C78.0492 23.8922 77.5364 24.4138 77.0131 24.8184C76.4897 25.2229 75.8879 25.521 75.2076 25.7126C74.5273 25.9042 73.7004 26 72.7271 26C71.6909 26 70.7594 25.7977 69.9325 25.3932C69.1162 24.9887 68.4725 24.3713 68.0015 23.5409C67.5305 22.6999 67.295 21.6354 67.295 20.3473C67.295 18.4524 67.9492 17.0579 69.2575 16.1637C70.5658 15.2588 72.5282 14.7585 75.1448 14.6627L78.1905 14.5669V13.7844C78.1905 12.8476 77.9498 12.161 77.4683 11.7246C76.9869 11.2881 76.317 11.0699 75.4588 11.0699C74.611 11.0699 73.7789 11.1923 72.9626 11.4371C72.1462 11.682 71.3298 11.9907 70.5134 12.3633L68.9278 9.07385C69.8593 8.57352 70.9007 8.17964 72.052 7.89222C73.2138 7.60479 74.4122 7.46108 75.6472 7.46108ZM78.1905 17.4092L76.338 17.4731C74.7889 17.5156 73.7109 17.7977 73.1039 18.3194C72.5073 18.841 72.209 19.5276 72.209 20.3792C72.209 21.1244 72.4235 21.6567 72.8527 21.976C73.2818 22.2848 73.8417 22.4391 74.5325 22.4391C75.5582 22.4391 76.4217 22.1304 77.123 21.513C77.8347 20.8955 78.1905 20.0173 78.1905 18.8782V17.4092Z"/>
<path d="M107.542 7.49301C109.53 7.49301 111.032 8.01464 112.048 9.05788C113.073 10.0905 113.586 11.7512 113.586 14.0399V25.6806H108.782V15.2535C108.782 13.976 108.568 13.0126 108.138 12.3633C107.709 11.7139 107.045 11.3892 106.145 11.3892C104.878 11.3892 103.978 11.8523 103.444 12.7784C102.91 13.6939 102.644 15.0086 102.644 16.7226V25.6806H97.8552V15.2535C97.8552 14.4019 97.761 13.6886 97.5726 13.1138C97.3842 12.5389 97.0964 12.1078 96.7091 11.8204C96.3219 11.5329 95.8247 11.3892 95.2177 11.3892C94.328 11.3892 93.6268 11.6181 93.1139 12.0758C92.6115 12.523 92.2505 13.1883 92.0307 14.0719C91.8213 14.9448 91.7167 16.0146 91.7167 17.2814V25.6806H86.9283V7.82834H90.5863L91.23 10.1118H91.4969C91.8527 9.49434 92.2976 8.99401 92.8313 8.61078C93.3756 8.22754 93.9722 7.94544 94.6211 7.76447C95.27 7.5835 95.9294 7.49301 96.5992 7.49301C97.8866 7.49301 98.9751 7.70592 99.8648 8.13174C100.765 8.55755 101.456 9.21756 101.937 10.1118H102.361C102.884 9.19627 103.622 8.53094 104.575 8.11577C105.538 7.7006 106.527 7.49301 107.542 7.49301Z"/>
</mask>
<path d="M20.9617 19.1976C20.9617 20.5815 20.632 21.7844 19.9726 22.8064C19.3133 23.8283 18.3504 24.6161 17.0839 25.1697C15.8279 25.7232 14.2999 26 12.4996 26C11.7042 26 10.9244 25.9468 10.1604 25.8403C9.40681 25.7339 8.6794 25.5795 7.97815 25.3772C7.28737 25.1643 6.62798 24.9035 6 24.5948V19.996C7.08851 20.4857 8.21888 20.9275 9.39111 21.3214C10.5634 21.7152 11.7251 21.9122 12.8764 21.9122C13.6719 21.9122 14.3103 21.8057 14.7918 21.5928C15.2837 21.3799 15.6396 21.0872 15.8593 20.7146C16.0791 20.342 16.189 19.9162 16.189 19.4371C16.189 18.8516 15.9954 18.3513 15.6082 17.9361C15.2209 17.521 14.6871 17.1324 14.0068 16.7705C13.3369 16.4085 12.5781 16.02 11.7304 15.6048C11.1966 15.3493 10.6157 15.0406 9.9877 14.6786C9.35971 14.3061 8.76313 13.8536 8.19794 13.3214C7.63276 12.7891 7.167 12.145 6.80068 11.3892C6.44482 10.6228 6.26689 9.70725 6.26689 8.64271C6.26689 7.24817 6.58089 6.05589 7.20887 5.06587C7.83685 4.07585 8.73173 3.32003 9.8935 2.7984C11.0657 2.26613 12.4473 2 14.0382 2C15.2314 2 16.367 2.14371 17.445 2.43114C18.5335 2.70792 19.6691 3.11244 20.8518 3.64471L19.2819 7.49301C18.2248 7.05655 17.2775 6.72122 16.4402 6.48703C15.6029 6.24218 14.7499 6.11976 13.8812 6.11976C13.2741 6.11976 12.7561 6.22089 12.3269 6.42315C11.8978 6.61477 11.5734 6.89155 11.3536 7.25349C11.1338 7.60479 11.0239 8.01464 11.0239 8.48303C11.0239 9.03659 11.1809 9.50499 11.4949 9.88822C11.8193 10.2608 12.3008 10.6228 12.9392 10.9741C13.5881 11.3253 14.3941 11.7352 15.357 12.2036C16.5292 12.7678 17.5287 13.3586 18.3556 13.976C19.1929 14.5828 19.8366 15.3014 20.2866 16.1317C20.7367 16.9514 20.9617 17.9734 20.9617 19.1976Z" fill="url(#paint0_linear_9_39)"/>
<path d="M31.1752 22.1198C31.6986 22.1198 32.2062 22.0665 32.6981 21.9601C33.2005 21.8536 33.6977 21.7206 34.1896 21.5609V25.1856C33.6767 25.4198 33.0383 25.6114 32.2742 25.7605C31.5206 25.9202 30.6938 26 29.7937 26C28.747 26 27.8051 25.8297 26.9678 25.489C26.1409 25.1377 25.4868 24.5363 25.0053 23.6846C24.5343 22.8224 24.2988 21.6248 24.2988 20.0918V11.485H22.0067V9.42515L24.6442 7.79641L26.0258 4.02794H29.0872V7.82834H34.0012V11.485H29.0872V20.0918C29.0872 20.7731 29.2756 21.2841 29.6524 21.6248C30.0396 21.9548 30.5473 22.1198 31.1752 22.1198Z" fill="url(#paint1_linear_9_39)"/>
<path d="M46.5853 7.49301C46.8261 7.49301 47.1034 7.50898 47.4174 7.54092C47.7419 7.56221 48.0035 7.59415 48.2024 7.63673L47.8413 12.2036C47.6843 12.1504 47.4593 12.1131 47.1662 12.0918C46.8836 12.0599 46.6377 12.0439 46.4284 12.0439C45.8108 12.0439 45.209 12.1238 44.6229 12.2834C44.0472 12.4431 43.5292 12.7039 43.0686 13.0659C42.6081 13.4172 42.2418 13.8856 41.9697 14.4711C41.708 15.0459 41.5772 15.7538 41.5772 16.5948V25.6806H36.7888V7.82834H40.4154L41.1219 10.8303H41.3574C41.7028 10.2236 42.1319 9.66999 42.6447 9.16966C43.1681 8.65868 43.7594 8.25416 44.4188 7.95609C45.0887 7.64737 45.8108 7.49301 46.5853 7.49301Z" fill="url(#paint2_linear_9_39)"/>
<path d="M57.6624 7.49301C59.2846 7.49301 60.6819 7.81238 61.8541 8.4511C63.0264 9.07917 63.9317 9.99468 64.5702 11.1976C65.2086 12.4005 65.5279 13.8696 65.5279 15.6048V17.9681H54.2084C54.2608 19.3413 54.6637 20.4218 55.4173 21.2096C56.1814 21.9867 57.2385 22.3752 58.5886 22.3752C59.7085 22.3752 60.7342 22.2582 61.6658 22.024C62.5973 21.7898 63.5549 21.4385 64.5388 20.9701V24.7385C63.6701 25.175 62.7595 25.4943 61.807 25.6966C60.8651 25.8989 59.719 26 58.3688 26C56.6105 26 55.051 25.67 53.6904 25.01C52.3402 24.35 51.2779 23.344 50.5033 21.992C49.7393 20.6401 49.3573 18.9368 49.3573 16.8822C49.3573 14.7957 49.7027 13.0605 50.3934 11.6766C51.0947 10.2821 52.0681 9.23886 53.3136 8.54691C54.5591 7.84431 56.0087 7.49301 57.6624 7.49301ZM57.6938 10.9581C56.7622 10.9581 55.9877 11.2615 55.3702 11.8683C54.7632 12.475 54.4125 13.4278 54.3183 14.7265H61.0378C61.0273 14.0027 60.8965 13.3586 60.6453 12.7944C60.4046 12.2302 60.0382 11.7831 59.5463 11.4531C59.0649 11.1231 58.4473 10.9581 57.6938 10.9581Z" fill="url(#paint3_linear_9_39)"/>
<path d="M75.6472 7.46108C78.0021 7.46108 79.8076 7.9827 81.0636 9.02595C82.3195 10.0692 82.9475 11.6554 82.9475 13.7844V25.6806H79.6035L78.6772 23.2535H78.5516C78.0492 23.8922 77.5364 24.4138 77.0131 24.8184C76.4897 25.2229 75.8879 25.521 75.2076 25.7126C74.5273 25.9042 73.7004 26 72.7271 26C71.6909 26 70.7594 25.7977 69.9325 25.3932C69.1162 24.9887 68.4725 24.3713 68.0015 23.5409C67.5305 22.6999 67.295 21.6354 67.295 20.3473C67.295 18.4524 67.9492 17.0579 69.2575 16.1637C70.5658 15.2588 72.5282 14.7585 75.1448 14.6627L78.1905 14.5669V13.7844C78.1905 12.8476 77.9498 12.161 77.4683 11.7246C76.9869 11.2881 76.317 11.0699 75.4588 11.0699C74.611 11.0699 73.7789 11.1923 72.9626 11.4371C72.1462 11.682 71.3298 11.9907 70.5134 12.3633L68.9278 9.07385C69.8593 8.57352 70.9007 8.17964 72.052 7.89222C73.2138 7.60479 74.4122 7.46108 75.6472 7.46108ZM78.1905 17.4092L76.338 17.4731C74.7889 17.5156 73.7109 17.7977 73.1039 18.3194C72.5073 18.841 72.209 19.5276 72.209 20.3792C72.209 21.1244 72.4235 21.6567 72.8527 21.976C73.2818 22.2848 73.8417 22.4391 74.5325 22.4391C75.5582 22.4391 76.4217 22.1304 77.123 21.513C77.8347 20.8955 78.1905 20.0173 78.1905 18.8782V17.4092Z" fill="url(#paint4_linear_9_39)"/>
<path d="M107.542 7.49301C109.53 7.49301 111.032 8.01464 112.048 9.05788C113.073 10.0905 113.586 11.7512 113.586 14.0399V25.6806H108.782V15.2535C108.782 13.976 108.568 13.0126 108.138 12.3633C107.709 11.7139 107.045 11.3892 106.145 11.3892C104.878 11.3892 103.978 11.8523 103.444 12.7784C102.91 13.6939 102.644 15.0086 102.644 16.7226V25.6806H97.8552V15.2535C97.8552 14.4019 97.761 13.6886 97.5726 13.1138C97.3842 12.5389 97.0964 12.1078 96.7091 11.8204C96.3219 11.5329 95.8247 11.3892 95.2177 11.3892C94.328 11.3892 93.6268 11.6181 93.1139 12.0758C92.6115 12.523 92.2505 13.1883 92.0307 14.0719C91.8213 14.9448 91.7167 16.0146 91.7167 17.2814V25.6806H86.9283V7.82834H90.5863L91.23 10.1118H91.4969C91.8527 9.49434 92.2976 8.99401 92.8313 8.61078C93.3756 8.22754 93.9722 7.94544 94.6211 7.76447C95.27 7.5835 95.9294 7.49301 96.5992 7.49301C97.8866 7.49301 98.9751 7.70592 99.8648 8.13174C100.765 8.55755 101.456 9.21756 101.937 10.1118H102.361C102.884 9.19627 103.622 8.53094 104.575 8.11577C105.538 7.7006 106.527 7.49301 107.542 7.49301Z" fill="url(#paint5_linear_9_39)"/>
<path d="M20.9617 19.1976C20.9617 20.5815 20.632 21.7844 19.9726 22.8064C19.3133 23.8283 18.3504 24.6161 17.0839 25.1697C15.8279 25.7232 14.2999 26 12.4996 26C11.7042 26 10.9244 25.9468 10.1604 25.8403C9.40681 25.7339 8.6794 25.5795 7.97815 25.3772C7.28737 25.1643 6.62798 24.9035 6 24.5948V19.996C7.08851 20.4857 8.21888 20.9275 9.39111 21.3214C10.5634 21.7152 11.7251 21.9122 12.8764 21.9122C13.6719 21.9122 14.3103 21.8057 14.7918 21.5928C15.2837 21.3799 15.6396 21.0872 15.8593 20.7146C16.0791 20.342 16.189 19.9162 16.189 19.4371C16.189 18.8516 15.9954 18.3513 15.6082 17.9361C15.2209 17.521 14.6871 17.1324 14.0068 16.7705C13.3369 16.4085 12.5781 16.02 11.7304 15.6048C11.1966 15.3493 10.6157 15.0406 9.9877 14.6786C9.35971 14.3061 8.76313 13.8536 8.19794 13.3214C7.63276 12.7891 7.167 12.145 6.80068 11.3892C6.44482 10.6228 6.26689 9.70725 6.26689 8.64271C6.26689 7.24817 6.58089 6.05589 7.20887 5.06587C7.83685 4.07585 8.73173 3.32003 9.8935 2.7984C11.0657 2.26613 12.4473 2 14.0382 2C15.2314 2 16.367 2.14371 17.445 2.43114C18.5335 2.70792 19.6691 3.11244 20.8518 3.64471L19.2819 7.49301C18.2248 7.05655 17.2775 6.72122 16.4402 6.48703C15.6029 6.24218 14.7499 6.11976 13.8812 6.11976C13.2741 6.11976 12.7561 6.22089 12.3269 6.42315C11.8978 6.61477 11.5734 6.89155 11.3536 7.25349C11.1338 7.60479 11.0239 8.01464 11.0239 8.48303C11.0239 9.03659 11.1809 9.50499 11.4949 9.88822C11.8193 10.2608 12.3008 10.6228 12.9392 10.9741C13.5881 11.3253 14.3941 11.7352 15.357 12.2036C16.5292 12.7678 17.5287 13.3586 18.3556 13.976C19.1929 14.5828 19.8366 15.3014 20.2866 16.1317C20.7367 16.9514 20.9617 17.9734 20.9617 19.1976Z" stroke="white" stroke-width="4" stroke-linejoin="round" mask="url(#path-1-outside-1_9_39)"/>
<path d="M31.1752 22.1198C31.6986 22.1198 32.2062 22.0665 32.6981 21.9601C33.2005 21.8536 33.6977 21.7206 34.1896 21.5609V25.1856C33.6767 25.4198 33.0383 25.6114 32.2742 25.7605C31.5206 25.9202 30.6938 26 29.7937 26C28.747 26 27.8051 25.8297 26.9678 25.489C26.1409 25.1377 25.4868 24.5363 25.0053 23.6846C24.5343 22.8224 24.2988 21.6248 24.2988 20.0918V11.485H22.0067V9.42515L24.6442 7.79641L26.0258 4.02794H29.0872V7.82834H34.0012V11.485H29.0872V20.0918C29.0872 20.7731 29.2756 21.2841 29.6524 21.6248C30.0396 21.9548 30.5473 22.1198 31.1752 22.1198Z" stroke="white" stroke-width="4" stroke-linejoin="round" mask="url(#path-1-outside-1_9_39)"/>
<path d="M46.5853 7.49301C46.8261 7.49301 47.1034 7.50898 47.4174 7.54092C47.7419 7.56221 48.0035 7.59415 48.2024 7.63673L47.8413 12.2036C47.6843 12.1504 47.4593 12.1131 47.1662 12.0918C46.8836 12.0599 46.6377 12.0439 46.4284 12.0439C45.8108 12.0439 45.209 12.1238 44.6229 12.2834C44.0472 12.4431 43.5292 12.7039 43.0686 13.0659C42.6081 13.4172 42.2418 13.8856 41.9697 14.4711C41.708 15.0459 41.5772 15.7538 41.5772 16.5948V25.6806H36.7888V7.82834H40.4154L41.1219 10.8303H41.3574C41.7028 10.2236 42.1319 9.66999 42.6447 9.16966C43.1681 8.65868 43.7594 8.25416 44.4188 7.95609C45.0887 7.64737 45.8108 7.49301 46.5853 7.49301Z" stroke="white" stroke-width="4" stroke-linejoin="round" mask="url(#path-1-outside-1_9_39)"/>
<path d="M57.6624 7.49301C59.2846 7.49301 60.6819 7.81238 61.8541 8.4511C63.0264 9.07917 63.9317 9.99468 64.5702 11.1976C65.2086 12.4005 65.5279 13.8696 65.5279 15.6048V17.9681H54.2084C54.2608 19.3413 54.6637 20.4218 55.4173 21.2096C56.1814 21.9867 57.2385 22.3752 58.5886 22.3752C59.7085 22.3752 60.7342 22.2582 61.6658 22.024C62.5973 21.7898 63.5549 21.4385 64.5388 20.9701V24.7385C63.6701 25.175 62.7595 25.4943 61.807 25.6966C60.8651 25.8989 59.719 26 58.3688 26C56.6105 26 55.051 25.67 53.6904 25.01C52.3402 24.35 51.2779 23.344 50.5033 21.992C49.7393 20.6401 49.3573 18.9368 49.3573 16.8822C49.3573 14.7957 49.7027 13.0605 50.3934 11.6766C51.0947 10.2821 52.0681 9.23886 53.3136 8.54691C54.5591 7.84431 56.0087 7.49301 57.6624 7.49301ZM57.6938 10.9581C56.7622 10.9581 55.9877 11.2615 55.3702 11.8683C54.7632 12.475 54.4125 13.4278 54.3183 14.7265H61.0378C61.0273 14.0027 60.8965 13.3586 60.6453 12.7944C60.4046 12.2302 60.0382 11.7831 59.5463 11.4531C59.0649 11.1231 58.4473 10.9581 57.6938 10.9581Z" stroke="white" stroke-width="4" stroke-linejoin="round" mask="url(#path-1-outside-1_9_39)"/>
<path d="M75.6472 7.46108C78.0021 7.46108 79.8076 7.9827 81.0636 9.02595C82.3195 10.0692 82.9475 11.6554 82.9475 13.7844V25.6806H79.6035L78.6772 23.2535H78.5516C78.0492 23.8922 77.5364 24.4138 77.0131 24.8184C76.4897 25.2229 75.8879 25.521 75.2076 25.7126C74.5273 25.9042 73.7004 26 72.7271 26C71.6909 26 70.7594 25.7977 69.9325 25.3932C69.1162 24.9887 68.4725 24.3713 68.0015 23.5409C67.5305 22.6999 67.295 21.6354 67.295 20.3473C67.295 18.4524 67.9492 17.0579 69.2575 16.1637C70.5658 15.2588 72.5282 14.7585 75.1448 14.6627L78.1905 14.5669V13.7844C78.1905 12.8476 77.9498 12.161 77.4683 11.7246C76.9869 11.2881 76.317 11.0699 75.4588 11.0699C74.611 11.0699 73.7789 11.1923 72.9626 11.4371C72.1462 11.682 71.3298 11.9907 70.5134 12.3633L68.9278 9.07385C69.8593 8.57352 70.9007 8.17964 72.052 7.89222C73.2138 7.60479 74.4122 7.46108 75.6472 7.46108ZM78.1905 17.4092L76.338 17.4731C74.7889 17.5156 73.7109 17.7977 73.1039 18.3194C72.5073 18.841 72.209 19.5276 72.209 20.3792C72.209 21.1244 72.4235 21.6567 72.8527 21.976C73.2818 22.2848 73.8417 22.4391 74.5325 22.4391C75.5582 22.4391 76.4217 22.1304 77.123 21.513C77.8347 20.8955 78.1905 20.0173 78.1905 18.8782V17.4092Z" stroke="white" stroke-width="4" stroke-linejoin="round" mask="url(#path-1-outside-1_9_39)"/>
<path d="M107.542 7.49301C109.53 7.49301 111.032 8.01464 112.048 9.05788C113.073 10.0905 113.586 11.7512 113.586 14.0399V25.6806H108.782V15.2535C108.782 13.976 108.568 13.0126 108.138 12.3633C107.709 11.7139 107.045 11.3892 106.145 11.3892C104.878 11.3892 103.978 11.8523 103.444 12.7784C102.91 13.6939 102.644 15.0086 102.644 16.7226V25.6806H97.8552V15.2535C97.8552 14.4019 97.761 13.6886 97.5726 13.1138C97.3842 12.5389 97.0964 12.1078 96.7091 11.8204C96.3219 11.5329 95.8247 11.3892 95.2177 11.3892C94.328 11.3892 93.6268 11.6181 93.1139 12.0758C92.6115 12.523 92.2505 13.1883 92.0307 14.0719C91.8213 14.9448 91.7167 16.0146 91.7167 17.2814V25.6806H86.9283V7.82834H90.5863L91.23 10.1118H91.4969C91.8527 9.49434 92.2976 8.99401 92.8313 8.61078C93.3756 8.22754 93.9722 7.94544 94.6211 7.76447C95.27 7.5835 95.9294 7.49301 96.5992 7.49301C97.8866 7.49301 98.9751 7.70592 99.8648 8.13174C100.765 8.55755 101.456 9.21756 101.937 10.1118H102.361C102.884 9.19627 103.622 8.53094 104.575 8.11577C105.538 7.7006 106.527 7.49301 107.542 7.49301Z" stroke="white" stroke-width="4" stroke-linejoin="round" mask="url(#path-1-outside-1_9_39)"/>
</g>
<path d="M20.9617 19.1976C20.9617 20.5815 20.632 21.7844 19.9726 22.8064C19.3133 23.8283 18.3504 24.6161 17.0839 25.1697C15.8279 25.7232 14.2999 26 12.4996 26C11.7042 26 10.9244 25.9468 10.1604 25.8403C9.40681 25.7339 8.6794 25.5795 7.97815 25.3772C7.28737 25.1643 6.62798 24.9035 6 24.5948V19.996C7.08851 20.4857 8.21888 20.9275 9.39111 21.3214C10.5634 21.7152 11.7251 21.9122 12.8764 21.9122C13.6719 21.9122 14.3103 21.8057 14.7918 21.5928C15.2837 21.3799 15.6396 21.0872 15.8593 20.7146C16.0791 20.342 16.189 19.9162 16.189 19.4371C16.189 18.8516 15.9954 18.3513 15.6082 17.9361C15.2209 17.521 14.6871 17.1324 14.0068 16.7705C13.3369 16.4085 12.5781 16.02 11.7304 15.6048C11.1966 15.3493 10.6157 15.0406 9.9877 14.6786C9.35971 14.3061 8.76313 13.8536 8.19794 13.3214C7.63276 12.7891 7.167 12.145 6.80068 11.3892C6.44482 10.6228 6.26689 9.70725 6.26689 8.64271C6.26689 7.24817 6.58089 6.05589 7.20887 5.06587C7.83685 4.07585 8.73173 3.32003 9.8935 2.7984C11.0657 2.26613 12.4473 2 14.0382 2C15.2314 2 16.367 2.14371 17.445 2.43114C18.5335 2.70792 19.6691 3.11244 20.8518 3.64471L19.2819 7.49301C18.2248 7.05655 17.2775 6.72122 16.4402 6.48703C15.6029 6.24218 14.7499 6.11976 13.8812 6.11976C13.2741 6.11976 12.7561 6.22089 12.3269 6.42315C11.8978 6.61477 11.5734 6.89155 11.3536 7.25349C11.1338 7.60479 11.0239 8.01464 11.0239 8.48303C11.0239 9.03659 11.1809 9.50499 11.4949 9.88822C11.8193 10.2608 12.3008 10.6228 12.9392 10.9741C13.5881 11.3253 14.3941 11.7352 15.357 12.2036C16.5292 12.7678 17.5287 13.3586 18.3556 13.976C19.1929 14.5828 19.8366 15.3014 20.2866 16.1317C20.7367 16.9514 20.9617 17.9734 20.9617 19.1976Z" fill="url(#paint6_linear_9_39)"/>
<path d="M31.1752 22.1198C31.6986 22.1198 32.2062 22.0665 32.6981 21.9601C33.2005 21.8536 33.6977 21.7206 34.1896 21.5609V25.1856C33.6767 25.4198 33.0383 25.6114 32.2742 25.7605C31.5206 25.9202 30.6938 26 29.7937 26C28.747 26 27.8051 25.8297 26.9678 25.489C26.1409 25.1377 25.4868 24.5363 25.0053 23.6846C24.5343 22.8224 24.2988 21.6248 24.2988 20.0918V11.485H22.0067V9.42515L24.6442 7.79641L26.0258 4.02794H29.0872V7.82834H34.0012V11.485H29.0872V20.0918C29.0872 20.7731 29.2756 21.2841 29.6524 21.6248C30.0396 21.9548 30.5473 22.1198 31.1752 22.1198Z" fill="url(#paint7_linear_9_39)"/>
<path d="M46.5853 7.49301C46.8261 7.49301 47.1034 7.50898 47.4174 7.54092C47.7419 7.56221 48.0035 7.59415 48.2024 7.63673L47.8413 12.2036C47.6843 12.1504 47.4593 12.1131 47.1662 12.0918C46.8836 12.0599 46.6377 12.0439 46.4284 12.0439C45.8108 12.0439 45.209 12.1238 44.6229 12.2834C44.0472 12.4431 43.5292 12.7039 43.0686 13.0659C42.6081 13.4172 42.2418 13.8856 41.9697 14.4711C41.708 15.0459 41.5772 15.7538 41.5772 16.5948V25.6806H36.7888V7.82834H40.4154L41.1219 10.8303H41.3574C41.7028 10.2236 42.1319 9.66999 42.6447 9.16966C43.1681 8.65868 43.7594 8.25416 44.4188 7.95609C45.0887 7.64737 45.8108 7.49301 46.5853 7.49301Z" fill="url(#paint8_linear_9_39)"/>
<path d="M57.6624 7.49301C59.2846 7.49301 60.6819 7.81238 61.8541 8.4511C63.0264 9.07917 63.9317 9.99468 64.5702 11.1976C65.2086 12.4005 65.5279 13.8696 65.5279 15.6048V17.9681H54.2084C54.2608 19.3413 54.6637 20.4218 55.4173 21.2096C56.1814 21.9867 57.2385 22.3752 58.5886 22.3752C59.7085 22.3752 60.7342 22.2582 61.6658 22.024C62.5973 21.7898 63.5549 21.4385 64.5388 20.9701V24.7385C63.6701 25.175 62.7595 25.4943 61.807 25.6966C60.8651 25.8989 59.719 26 58.3688 26C56.6105 26 55.051 25.67 53.6904 25.01C52.3402 24.35 51.2779 23.344 50.5033 21.992C49.7393 20.6401 49.3573 18.9368 49.3573 16.8822C49.3573 14.7957 49.7027 13.0605 50.3934 11.6766C51.0947 10.2821 52.0681 9.23886 53.3136 8.54691C54.5591 7.84431 56.0087 7.49301 57.6624 7.49301ZM57.6938 10.9581C56.7622 10.9581 55.9877 11.2615 55.3702 11.8683C54.7632 12.475 54.4125 13.4278 54.3183 14.7265H61.0378C61.0273 14.0027 60.8965 13.3586 60.6453 12.7944C60.4046 12.2302 60.0382 11.7831 59.5463 11.4531C59.0649 11.1231 58.4473 10.9581 57.6938 10.9581Z" fill="url(#paint9_linear_9_39)"/>
<path d="M75.6472 7.46108C78.0021 7.46108 79.8076 7.9827 81.0636 9.02595C82.3195 10.0692 82.9475 11.6554 82.9475 13.7844V25.6806H79.6035L78.6772 23.2535H78.5516C78.0492 23.8922 77.5364 24.4138 77.0131 24.8184C76.4897 25.2229 75.8879 25.521 75.2076 25.7126C74.5273 25.9042 73.7004 26 72.7271 26C71.6909 26 70.7594 25.7977 69.9325 25.3932C69.1162 24.9887 68.4725 24.3713 68.0015 23.5409C67.5305 22.6999 67.295 21.6354 67.295 20.3473C67.295 18.4524 67.9492 17.0579 69.2575 16.1637C70.5658 15.2588 72.5282 14.7585 75.1448 14.6627L78.1905 14.5669V13.7844C78.1905 12.8476 77.9498 12.161 77.4683 11.7246C76.9869 11.2881 76.317 11.0699 75.4588 11.0699C74.611 11.0699 73.7789 11.1923 72.9626 11.4371C72.1462 11.682 71.3298 11.9907 70.5134 12.3633L68.9278 9.07385C69.8593 8.57352 70.9007 8.17964 72.052 7.89222C73.2138 7.60479 74.4122 7.46108 75.6472 7.46108ZM78.1905 17.4092L76.338 17.4731C74.7889 17.5156 73.7109 17.7977 73.1039 18.3194C72.5073 18.841 72.209 19.5276 72.209 20.3792C72.209 21.1244 72.4235 21.6567 72.8527 21.976C73.2818 22.2848 73.8417 22.4391 74.5325 22.4391C75.5582 22.4391 76.4217 22.1304 77.123 21.513C77.8347 20.8955 78.1905 20.0173 78.1905 18.8782V17.4092Z" fill="url(#paint10_linear_9_39)"/>
<path d="M107.542 7.49301C109.53 7.49301 111.032 8.01464 112.048 9.05788C113.073 10.0905 113.586 11.7512 113.586 14.0399V25.6806H108.782V15.2535C108.782 13.976 108.568 13.0126 108.138 12.3633C107.709 11.7139 107.045 11.3892 106.145 11.3892C104.878 11.3892 103.978 11.8523 103.444 12.7784C102.91 13.6939 102.644 15.0086 102.644 16.7226V25.6806H97.8552V15.2535C97.8552 14.4019 97.761 13.6886 97.5726 13.1138C97.3842 12.5389 97.0964 12.1078 96.7091 11.8204C96.3219 11.5329 95.8247 11.3892 95.2177 11.3892C94.328 11.3892 93.6268 11.6181 93.1139 12.0758C92.6115 12.523 92.2505 13.1883 92.0307 14.0719C91.8213 14.9448 91.7167 16.0146 91.7167 17.2814V25.6806H86.9283V7.82834H90.5863L91.23 10.1118H91.4969C91.8527 9.49434 92.2976 8.99401 92.8313 8.61078C93.3756 8.22754 93.9722 7.94544 94.6211 7.76447C95.27 7.5835 95.9294 7.49301 96.5992 7.49301C97.8866 7.49301 98.9751 7.70592 99.8648 8.13174C100.765 8.55755 101.456 9.21756 101.937 10.1118H102.361C102.884 9.19627 103.622 8.53094 104.575 8.11577C105.538 7.7006 106.527 7.49301 107.542 7.49301Z" fill="url(#paint11_linear_9_39)"/>
<defs>
<filter id="filter0_d_9_39" x="0" y="0" width="119.586" height="36" filterUnits="userSpaceOnUse" color-interpolation-filters="sRGB">
<feFlood flood-opacity="0" result="BackgroundImageFix"/>
<feColorMatrix in="SourceAlpha" type="matrix" values="0 0 0 0 0 0 0 0 0 0 0 0 0 0 0 0 0 0 127 0" result="hardAlpha"/>
<feOffset dy="4"/>
<feGaussianBlur stdDeviation="2"/>
<feComposite in2="hardAlpha" operator="out"/>
<feColorMatrix type="matrix" values="0 0 0 0 0 0 0 0 0 0 0 0 0 0 0 0 0 0 0.1 0"/>
<feBlend mode="normal" in2="BackgroundImageFix" result="effect1_dropShadow_9_39"/>
<feBlend mode="normal" in="SourceGraphic" in2="effect1_dropShadow_9_39" result="shape"/>
</filter>
<linearGradient id="paint0_linear_9_39" x1="9.66939" y1="-0.578988" x2="120.73" y2="26.2003" gradientUnits="userSpaceOnUse">
<stop stop-color="#1E1E1E"/>
<stop offset="1" stop-color="#1E1E1E"/>
</linearGradient>
<linearGradient id="paint1_linear_9_39" x1="9.66939" y1="-0.578988" x2="120.73" y2="26.2003" gradientUnits="userSpaceOnUse">
<stop stop-color="#1E1E1E"/>
<stop offset="1" stop-color="#1E1E1E"/>
</linearGradient>
<linearGradient id="paint2_linear_9_39" x1="9.66939" y1="-0.578988" x2="120.73" y2="26.2003" gradientUnits="userSpaceOnUse">
<stop stop-color="#1E1E1E"/>
<stop offset="1" stop-color="#1E1E1E"/>
</linearGradient>
<linearGradient id="paint3_linear_9_39" x1="9.66939" y1="-0.578988" x2="120.73" y2="26.2003" gradientUnits="userSpaceOnUse">
<stop stop-color="#1E1E1E"/>
<stop offset="1" stop-color="#1E1E1E"/>
</linearGradient>
<linearGradient id="paint4_linear_9_39" x1="9.66939" y1="-0.578988" x2="120.73" y2="26.2003" gradientUnits="userSpaceOnUse">
<stop stop-color="#1E1E1E"/>
<stop offset="1" stop-color="#1E1E1E"/>
</linearGradient>
<linearGradient id="paint5_linear_9_39" x1="9.66939" y1="-0.578988" x2="120.73" y2="26.2003" gradientUnits="userSpaceOnUse">
<stop stop-color="#1E1E1E"/>
<stop offset="1" stop-color="#1E1E1E"/>
</linearGradient>
<linearGradient id="paint6_linear_9_39" x1="9.66937" y1="-0.578992" x2="120.73" y2="26.2003" gradientUnits="userSpaceOnUse">
<stop stop-color="#1E1E1E"/>
<stop offset="1"/>
</linearGradient>
<linearGradient id="paint7_linear_9_39" x1="9.66937" y1="-0.578992" x2="120.73" y2="26.2003" gradientUnits="userSpaceOnUse">
<stop stop-color="#1E1E1E"/>
<stop offset="1"/>
</linearGradient>
<linearGradient id="paint8_linear_9_39" x1="9.66937" y1="-0.578992" x2="120.73" y2="26.2003" gradientUnits="userSpaceOnUse">
<stop stop-color="#1E1E1E"/>
<stop offset="1"/>
</linearGradient>
<linearGradient id="paint9_linear_9_39" x1="9.66937" y1="-0.578992" x2="120.73" y2="26.2003" gradientUnits="userSpaceOnUse">
<stop stop-color="#1E1E1E"/>
<stop offset="1"/>
</linearGradient>
<linearGradient id="paint10_linear_9_39" x1="9.66937" y1="-0.578992" x2="120.73" y2="26.2003" gradientUnits="userSpaceOnUse">
<stop stop-color="#1E1E1E"/>
<stop offset="1"/>
</linearGradient>
<linearGradient id="paint11_linear_9_39" x1="9.66937" y1="-0.578992" x2="120.73" y2="26.2003" gradientUnits="userSpaceOnUse">
<stop stop-color="#1E1E1E"/>
<stop offset="1"/>
</linearGradient>
</defs>
</svg>
